<?xml version="1.0" encoding="UTF-8"?>
<svg id="Calque_2" data-name="Calque 2" xmlns="http://www.w3.org/2000/svg" viewBox="0 0 481.86 186.1">
  <defs>
    <style>
      .cls-1 {
        fill: #fff;
      }
    </style>
  </defs>
  <g id="Texte">
    <g>
      <path class="cls-1" d="m303.89,137.9c.21-.05.44-.08.63-.16,1.4-.6,2.81-.61,4.3-.3,1,.21,1.96-.16,2.65-1.05.51-.65,1.13-1.21,1.69-1.82.24-.26.44-.31.79-.13,1.73.9,3.23.43,4.47-.94.62-.68,1.31-.74,2.13-.65.99.11,2,.24,2.99.2.62-.02,1.3-.23,1.84-.54.6-.35,1.07-.89,1.88-.59.68.25,1.47,0,2.09.6.65.63,1.48.68,2.33.37.9-.33,1.85-.58,2.68-1.03.89-.48,1.78-.51,2.65-.22,2.46.81,5.03,1.03,7.57,1.37.49.07,1.08-.01,1.53-.23,1.47-.69,1.64-1.32.84-2.78-.1-.19-.3-.32-.43-.49-.26-.34-.17-.59.26-.63,1.08-.1,2.17-.15,3.26-.25.82-.07,1.66-.11,2.45-.3,1.1-.26,1.43-1.49.68-2.35-.23-.26-.52-.46-.79-.69-1.18-1-2.57-1.61-3.97-2.23-1.13-.5-2.2-1.16-3.29-1.75.02-.1.04-.2.06-.3.67,0,1.35.04,2.02,0,2.35-.18,4.7-.29,7.03-.62,1.1-.16,2.31-.34,3.38-1.33-.72-.35-1.29-.64-1.87-.91-.55-.26-1.13-.46-1.66-.75-1.9-1.04-3.8-2.05-5.88-2.74-1.03-.34-2.03-.79-3.02-1.24-.24-.11-.4-.37-.6-.56.28-.08.56-.22.83-.21.61.03,1.21.17,1.81.22,3.08.25,6.17.55,9.26.69,1.56.07,3.14-.04,4.69-.24,1.21-.15,1.48-1.11.71-2.1-.16-.21-.31-.45-.52-.58-1.13-.65-2.24-1.29-3.59-1.47-2.55-.34-5.07-.81-7.61-1.23-1.72-.28-3.44-.52-5.15-.88-1.4-.3-2.77-.74-4.14-1.12-.08-.02-.17-.07-.22-.14-.1-.13-.26-.29-.24-.42.02-.12.21-.26.35-.32.56-.24,1.16-.4,1.68-.7.82-.48,1.75-.55,2.53-.27,1.65.59,3.33.64,5.03.69,2.2.07,4.37-.15,6.44-.9.75-.27,1.41-.84,2.06-1.34.29-.22.27-.53-.17-.67-1.46-.44-2.9-.98-4.39-1.29-2.29-.49-4.62-.78-6.92-1.19-3.83-.68-7.68-1.03-11.55-1.24-.6-.03-1.19-.16-1.94-.26,1.3-.7,2.55-.36,3.73-.52,2.44-.32,4.88,0,7.3.16,1.86.13,3.66.03,5.45-.37.8-.18,1.6-.42,2.35-.76.35-.16.65-.57.84-.93.27-.52.08-.81-.5-.92-.34-.06-.7-.06-1.04-.13-1.47-.31-2.93-.66-4.4-.94-1.03-.19-2.07-.28-3.11-.4-2.75-.31-5.48-.97-8.28-.69-.17.02-.35.02-.52,0-1.86-.11-3.72-.22-5.59-.34-1.13-.08-2.26-.17-3.39-.28-3.08-.31-6.15-.66-9.23-.96-2.04-.19-4.08-.3-6.12-.47-.82-.07-1.65-.29-2.47-.27-3,.08-5.99-.22-8.99-.03-3.28.2-6.49.63-9.63,1.67-1.47.49-3.05.68-4.58,1.01-.42.09-.83.23-1.24.36-.37.12-.73.29-1.11.36-2.31.43-4.62.83-6.94,1.25-3.05.55-6.13.92-9.23.82-4.17-.14-8.27.54-12.34,1.27-3.01.54-6.03.9-9.08.81-1.86-.05-3.71-.41-5.58-.25-.34.03-.72.1-1.03.01-.73-.21-1.61-.32-2.11-.81-.83-.8-1.53-1.8-2.04-2.83-.56-1.14-1.28-2.11-2.28-2.79-1.03-.71-1.55-1.6-1.74-2.78-.09-.6-.85-1.55-1.14-1.39-.42.22-.83.61-1.06,1.02-.63,1.14-1.51,2.02-2.52,2.8-.41.32-.8.68-1.16,1.05-1.2,1.26-2.39,2.55-3.59,3.81-.24.25-.5.52-.81.66-2.28,1.03-4.52,2.3-7.19,1.82-.21-.04-.44,0-.65,0-1.74,0-3.48-.02-5.22.03-2.28.07-4.54-.14-6.75-.62-3.49-.76-6.95-1.66-10.4-2.55-2.74-.71-5.45-1.5-8.17-2.25-.17-.05-.35-.05-.52-.09-1.01-.23-2.03-.44-3.04-.69-2.28-.58-4.54-1.19-6.82-1.75-1.17-.29-2.35-.51-3.52-.75-1.75-.35-3.5-.68-5.25-1.04-2.95-.6-5.9-1.12-8.93-1.03-2.22.07-4.44.19-6.66.23-2.03.04-3.97.39-5.87,1.14-.97.38-1.97.79-2.99.88-1.37.12-2.76-.07-4.15-.1-4.17-.11-8.25.72-12.31,1.48-2.47.47-4.87,1.35-7.24,2.21-2.09.75-4.1,1.7-6.13,2.6-.28.12-.46.45-.69.68.27.19.51.47.8.55,1.62.42,3.31.59,4.81,1.43.12.07.38.07.48-.02.64-.48,1.21-.12,1.97.08-.79.21-1.42.41-2.06.53-2.56.49-5.1,1.09-7.61,1.82-2.41.7-4.89,1.18-7.33,1.8-1.17.3-2.46.34-3.37,1.27-.45.47-1.43.75-1.18,1.54.23.75,1.18.63,1.83.72,2.64.37,5.28.67,7.96.53.3-.02.62-.02.92.02.22.03.42.16.82.31-.47.22-.74.35-1.01.47-1.83.81-3.69,1.56-5.47,2.46-1.12.56-2.15,1.32-3.18,2.05-.22.16-.27.56-.4.85.31.12.61.32.92.36.94.1,1.89.18,2.84.2,2.18.04,4.37.2,6.53,0,2.03-.18,4.02-.74,6.03-1.12.07-.01.16.05.48.15-.79.39-1.44.69-2.05,1.04-.71.4-1.53.74-2.05,1.32-1.17,1.34-2.38,2.61-3.79,3.71-1.06.83-2.06,1.75-3.04,2.67-.4.38-.32.81.14.9.72.14,1.5.38,2.18.23,1.65-.37,3.26-.93,4.88-1.42.46-.14.91-.28,1.37-.43.99-.3,1.98-.62,2.98-.9.23-.07.5-.08.74-.03.43.08.5.37.19.64-.93.85-1.86,1.72-2.85,2.5-1.34,1.04-2.74,2.01-4.11,3.01-.67.49-.68,1.08-.01,1.59.2.16.46.24.7.35,1.35.62,2.74.33,4.12.18,1.04-.11,2.07-.31,3.11-.39.49-.04.99.11,1.48.18-.21.37-.43.73-.64,1.1-.63,1.1-.16,2.02,1.09,2.09,2.52.15,4.99-.05,7.27-1.24.77-.4,1.41-.25,2.07.21,1.01.72,2.15.89,3.37.73.41-.05.84.04,1.26.09,1.2.15,2.43.51,3.61.4.87-.08,1.47.13,2.16.52,2.12,1.21,4.34,2,6.86,1.47.47-.1,1.07-.03,1.5.18.85.42,1.66.95,2.43,1.52,1.44,1.08,3.01,1.32,4.71.83.33-.1.66-.23.98-.35.32-.12.56-.11.77.23.94,1.53,2.34,2.13,4.1,2.01.35-.02.7,0,1.05-.04.89-.09,1.58.2,2.19.88,1.17,1.32,2.66,1.95,4.44,1.74.84-.1,1.48.08,2.04.8.92,1.17,2.12,1.63,3.59.97.23-.11.51-.2.75-.19.33.01.78.02.98.23,1.08,1.1,2.35,1.23,3.75.86.42-.11.83-.23,1.26-.31.42-.07.86-.17,1.26-.1.77.12,1.51.44,2.28.52,2.11.24,4.23.66,6.37.16.49-.12.82.07,1.09.5.83,1.34,2.09,1.85,3.63,1.8,1.04-.03,1.99.28,2.75,1.01.81.77,1.77,1.08,2.86,1.09.52,0,1.05-.03,1.57,0,.08,0,.16.01.22.02,1.82-.67,3.96-.38,6.13.03.57.11,1,.33,1.32.62.59-.24,1.19-.46,1.81-.62.47-.12.9-.12,1.29-.04.1-.07.22-.07.41-.03.67.14,1.36.24,2.05.3,1.03.09,1.2.3.95,1.34-.1.42-.19.86-.38,1.24-1.16,2.35-2.17,4.75-2.9,7.27-.05.16-.12.38-.24.45-.95.55-.97,1.58-1.33,2.45-.55,1.37-1.23,2.7-1.77,4.08-.34.88-.63,1.81-.75,2.74-.09.68.15,1.38.88,1.76.69.37.9.97.89,1.75-.02,1.54.59,2.8,1.94,3.61.86.52,1.46,1.23,1.75,2.19.41,1.38,1.38,2.21,2.67,2.66.66.23,1.16.58,1.49,1.19.93,1.7,2.52,2.07,4.23,1.99.63-.03,1.07.12,1.3.6.5,1.03,1.44,1.18,2.39,1.33.39.06.79.09,1.18.06.78-.07,1.42.11,2.04.64,2.45,2.07,5.83,1.27,7.65-.44.59-.56,1.22-.79,2.01-.73.96.06,1.76-.25,2.51-.89.43-.37,1.06-.6,1.64-.68.83-.13,1.45-.44,1.99-1.09.75-.9,1.51-1.74,2.82-1.95.96-.15,1.47-1.06,1.89-1.88.31-.61.71-1.03,1.31-1.38,1.5-.88,2.21-2.32,2.43-3.98.11-.81.28-1.34,1.19-1.61,1.31-.39,2.14-1.98,1.8-3.39-.49-2.03-.96-4.07-2.3-5.79-.5-.64-.78-1.45-1.21-2.15-.36-.59-.76-1.16-1.2-1.69-.9-1.09-1.49-2.31-2.01-3.62-.65-1.66-1.5-3.24-2.25-4.85-.18-.39-.37-.79-.5-1.2-.3-.95-.07-1.26.95-1.33.89-.06,1.68-.02,2.22.95.54.97,1.45,1.28,2.58.93.82-.26,1.68-.42,2.53-.55.19-.03.34,0,.47.05.36-.18.75-.27,1.16-.22.23.03.46.05.69.06.51-.54,1.3-.93,1.99-.85.7.08,1.39.17,2.09.2.2,0,.42,0,.62.01.03-.01.06-.02.09-.03.04-.04.09-.1.16-.17.48-.6,1.25-.83,2-.79.02-.25.2-.37.53-.37.3,0,.65-.02.89.12,1.09.6,2.11.42,3.1-.2.57-.35,1-.34,1.65.03.8.46,1.79.62,2.71.81.79.17,1.26-.49,1.78-.93.38-.33.74-.32,1.2-.23,1.95.36,2.61.04,3.46-1.7.25-.51.59-.73,1.1-.77.66-.05,1.33-.07,1.87.4.53.44,1.16.49,1.73.3.81-.28,1.61-.65,2.33-1.11.36-.23.62-.39,1.05-.31,2.34.43,4.5.12,6.4-1.47.57-.48,1.23-.71,2.06-.5.75.19,1.56.21,2.34.16.44-.03,1.08.08,1.2-.69.14-.95.16-.94,1.11-.9"/>
      <path class="cls-1" d="m481.85,77c-.12-1.27-.37-2.55-.29-3.81.16-2.59-.48-4.94-1.64-7.22-.63-1.24-1.09-2.57-1.03-4,.05-1.09-.17-2.11-.75-3.04-.69-1.12-.71-2.32-.53-3.55.08-.55.22-1.09.4-1.62.24-.72,0-1.24-.65-1.49-1.59-.61-3-1.77-4.84-1.61-.16.01-.4.03-.48-.07-.14-.17-.32-.53-.25-.61.7-.76,1.4-1.55,2.21-2.19.78-.62,1.05-1.26.44-2.02-1.06-1.33-1.82-2.97-3.55-3.66-.24-.1-.44-.34-.62-.55-1.32-1.43-3.02-2.05-4.89-2.21-.67-.06-1.11-.28-1.54-.8-.85-1.04-1.97-1.61-3.35-1.61-2.67,0-5.35-.09-8.02.03-2.12.09-4.2.55-5.98,1.84-1.17.85-2.37,1.67-3.47,2.6-.74.63-1.51.71-2.33.46-.68-.21-1.31-.59-1.96-.9-.74-.36-1.45-.87-2.36-.52-.18.07-.45.02-.63-.06-1.35-.65-2.55-.32-3.76.42-.94.58-1.9,1.16-2.92,1.6-1.21.51-2.46.06-3.19-1.03-.31-.46-.56-.96-.84-1.44-1.25-2.09-1.33-2.14-3.63-1.3-.69.25-.93-.02-1-.64-.02-.22-.01-.45-.03-.67-.17-2.55-1.38-3.77-3.92-3.92-.5-.03-.69-.22-.7-.7-.02-1.27-.03-2.53-.1-3.8-.07-1.12-.43-2.15-1.03-3.13-1.02-1.67-1.85-3.42-1.96-5.43-.03-.49-.2-.98-.36-1.45-.28-.78-1.37-.99-1.82-.3-.39.58-.61,1.29-.82,1.97-.18.56-.25,1.16-.37,1.74-.14-.01-.28-.03-.43-.04-.16-.64-.38-1.26-.48-1.91-.59-4.01-1.12-8.02-1.76-12.02-.1-.64-.57-1.33-1.06-1.79-.7-.65-1.73-.43-2.14.3-.95,1.69-1.84,3.4-2.81,5.07-.59,1.02-.89,2.14-.6,3.21.43,1.56-.04,2.96-.37,4.41-.1.43-.28.87-.27,1.3.04,1.86-.76,3.2-2.18,4.41-1.03.87-1.95,1.22-3.16.72-.61-.25-1.2-.53-1.77-.85-1.89-1.04-3.12-.63-3.95,1.35-.13.31-.26.62-.34.94-.17.7-.23,1.58-1.05,1.74-.87.17-1.18-.67-1.52-1.3-.29-.53-.64-.55-1.07-.2-.52.42-1,.89-1.56,1.24-1.12.7-2.22,1.49-3.44,1.96-1.09.42-1.98-.46-2.89-.99-.73-.42-1.44-.36-2.19.13-.68.44-1.46.75-2.22,1.06-.85.34-1.39-.05-1.68-.85-.29-.78-.62-1.55-.86-2.35-.23-.77-.71-1.24-1.45-1.47-1.64-.52-3.27-1.09-4.93-1.54-2.72-.74-3.93-1.05-4.91,2.5-.22.77-.67,1.01-1.37.71-1.81-.8-3.41-.44-4.99.68-1.03.74-1.61.52-2.02-.67-.36-1.03-.87-1.85-1.79-2.52-1.24-.91-1.24-2-.19-3.12.15-.16.3-.33.48-.47,1.16-.91,1.38-2.02.9-3.41-.62-1.84-.54-1.92,1.14-2.89,1.4-.81,1.59-2.05.47-3.25-.65-.69-1.36-1.32-2.03-1.99-.27-.27-.58-.52-.76-.85-.81-1.49-1.48-1.98-2.99-1.66-.9.19-1.43.01-2.02-.65-1.07-1.2-2.44-1.63-4.06-1.44-1.76.21-3.54.26-5.31.42-.43.04-.87.16-1.28.33-1.63.67-3.09,1.5-3.56,3.43-.16.68-.7,1.14-1.52.96-2.19-.49-3.85.49-5.37,1.89-.95.87-1.05,1.9-.65,3.05.09.26.26.5.34.76.28.93-.26,1.96-1.19,2.06-.56.06-.64.29-.67.72-.09,1.38-.04,2.69,1.4,3.47.2.11.27.44.4.67-.23.11-.45.29-.69.32-1.21.15-2.42.25-3.63.38-.99.11-1.85-.06-2.55-.88-.46-.55-1.02-1.03-1.61-1.45-1.37-1-1.77-.86-2.44.7-.3.71-.5,1.51-1.58,1.42-.23-.02-.53.34-.72.59-.33.45-.54.98-.89,1.4-.31.37-.73.84-1.14.88-.79.07-1.6-.09-2.39-.24-1.22-.24-1.44-.83-.77-1.89.81-1.29.72-1.59-.48-2.58-.39-.32-.76-.82-.86-1.29-.11-.49.37-1.12-.24-1.52-.5-.33-1.04-.69-1.61-.82-1.29-.31-2.6-.48-3.91-.72-.93-.17-1.89-.24-2.77-.54-.65-.22-1.38-.63-1.73-1.18-1.09-1.71-2.64-2.32-4.55-2.23-1.37.06-2.59-.41-3.45-1.37-1.87-2.11-6.01-2.38-8.65-.1-1.06.92-1.12.98-2.26.11-1.71-1.31-3.66-2.13-5.67-2.79-2.46-.8-4.92-1.02-7.12.79-.47.38-.94.77-1.35,1.21-.76.83-1.59,1.53-2.66,1.97-2.5,1.03-4.48,2.76-6.32,4.7-.76.8-1.47,1.73-2.39,2.29-.94.57-1.93,1.3-3.2,1.06q-3.76-.69-6.94,1.47c-.23.16-.49.28-.7.46-1.5,1.34-3.26,1.19-4.84.46-1.46-.68-2.64-.62-3.91.21-.56.37-1.15.68-1.69,1.07-3.13,2.25-6.31,4.44-9.36,6.81-1.45,1.13-2.91,2.19-4.54,3.02-.62.31-1.08.35-1.7,0-1.39-.81-2.8-1.59-4.24-2.29-2.25-1.09-4.62-1.97-6.77-3.22-1.76-1.02-3.53-1.53-5.53-1.53-1.16,0-2.32-.16-3.48-.3-.28-.03-.77-.32-.75-.44.04-.34.22-.83.48-.94.7-.3,1.5-.37,2.22-.63,1.45-.52,2.92-1.03,4.29-1.73.42-.21.76-1.02.73-1.54-.02-.34-.7-.86-1.16-.94-1.37-.24-2.3-1.08-3.16-2.04-1.51-1.67-3.42-2.57-5.56-3.11-1.72-.43-3.44-.88-5.13-1.42-1.79-.57-3.56-.69-5.43-.39-1.93.31-3.84.31-5.62-.88-1.98-1.32-4.02-2.57-6.13-3.67-2.06-1.08-4.2-2.05-6.38-2.88-2.44-.93-4.96-1.64-7.44-2.46-2.48-.82-5-1.51-7.62-1.65-1.76-.09-3.4-.53-4.97-1.29-.75-.37-1.49-.76-2.28-1.01C133.34-.07,130.16-.01,127.09,0c-3.45.02-6.76,1.23-9.8,2.97-1.21.69-2.4,1.42-3.67,1.97-1.21.53-2.5.97-3.79,1.23-2.28.45-4.61.69-6.9,1.09-2.85.5-5.58.59-8.27-.88-1.92-1.05-4.07-1.55-6.3-.98-.92.23-1.86.43-2.72.8-1.4.6-2.61.22-3.81-.48-2.05-1.19-2.36-1.19-4.1.28-.36.31-.68.56-1.17.3-1.55-.81-2.99-.16-4.26.57-1.27.73-2.54.83-3.86.6-1.58-.27-3.14-.71-4.71-1.06-1.67-.37-3.3-.49-4.76.68-.35.28-.77.45-1.13.7-1.04.74-2.25,1.34-3.04,2.29-.93,1.12-2.05,1.84-3.26,2.52-.62.34-1.23.71-1.78,1.15-1.88,1.49-3.41,1.43-5.09-.28-.16-.16-.31-.32-.47-.48-.92-.9-1.95-1.18-2.99-.47-1.24.84-2.42.77-3.63.19-3.5-1.69-7.01-3.37-10.46-5.18-1.88-.98-3.57-.92-4.91.76-1.13,1.41-2.78,2.01-4.15,3.03-.36.27-1.07.13-1.61.11-.83-.04-1.66-.16-2.49-.21-1.58-.1-2.82.55-3.73,1.81-1.34,1.86-2.09,4.02-2.89,6.13-.37.96-.43,1.98-1.15,2.86-.78.95-.31,1.82.88,2.26,1.36.5,2.66.04,3.94-.19,3.93-.72,7.85-1.53,11.76-2.35,2.39-.5,4.4.43,6.18,1.78.9.68,1.71,1.05,2.83,1.09,1.4.05,2.46-.53,3.5-1.33,1.21-.93,1.57-.92,2.79-.04,1.75,1.27,2.96,1.32,4.65.06.55-.41,1.01-.39,1.52-.09.86.49,1.46,1.18,1.66,2.18.17.87.44,1.73.54,2.6.2,1.79,1.35,2.31,2.93,2.6,1.29.24,2.57.69,3.77,1.24.96.44.9.68.11,1.42-1.04.97-1.01,1.37-.25,2.56.99,1.56,2.25,2.42,4.16,2.1.16-.03.33,0,.5,0,.79-.02,1.27.36,1.41,1.13.1.54.18,1.09.25,1.64.28,2.01,1.39,2.81,3.34,2.38.71-.16,1.41-.33,2.11-.5,1.79-.43,3.01-1.41,3.15-3.38.01-.17.04-.33.05-.5.05-.64.42-.77.91-.47.7.44,1.4.9,2.03,1.43.98.83,2.08,1.38,3.35,1.18,1.37-.21,2.73-.56,4.05-.97,1.73-.53,1.8-.53,2.95.78.69.79.56,1.65.31,2.51-.62,2.16-.12,3.07,2.11,3.48,1.91.35,3.8.68,5.63,1.4,1.45.57,2.68.01,3.67-1.23.38-.47.8-.93,1.27-1.29.96-.72,1.64-.75,2.29.18,1.16,1.66,2.7,1.71,4.44,1.44.93-.14,1.88-.12,2.82-.22,1.51-.17,2.75.37,3.76,1.43.93.97,1.38,2.08.96,3.5-.14.48.2,1.11.32,1.67.45-.28.94-.51,1.34-.84.4-.33.78-.76,1.29-.35.94.75,2.13,1.34,2.45,2.61.27,1.09,1.03,1.54,1.94,1.86.63.22,1.3.32,1.92.55.86.32,1.61.04,2.12-.57,1.32-1.56,3.04-2.09,4.91-1.74,2.03.38,3.56-.3,5.03-1.56.53-.46,1.31-1.08,1.86-.98,1.86.34,3.94.02,5.48,1.56,1.01,1.01,2.18,1.47,3.64.91.61-.23,1.31-.36,1.96-.32.5.03,1.1.27,1.46.61.71.69,1.22,1.59,1.94,2.28,1.53,1.45,2.21,3.89,4.77,4.15.1.01.19.11.28.18.77.67,1.68.77,2.66.77,3.57-.02,7.13,0,10.7.01.55,0,1.12.04,1.65.16,1.18.28,1.26.26,1.55-.91.08-.32.12-.66.13-.99.13-2.61.22-5.22.38-7.83.09-1.45.32-2.87,1.37-4.01,1.01-1.1,1.98-2.25,3-3.35,1.77-1.9,2.2-1.87,3.79.24,1.54,2.04,3.07,4.09,4.55,6.17.33.47.58,1.08.64,1.65.26,2.54.45,5.08.65,7.63.09,1.09.21,1.22,1.31,1.24,1.29.03,1.66-.21,1.69-1.27.03-1.33.11-2.7-.11-4-.22-1.36-.27-2.68.14-3.96.39-1.19.1-2.17-.51-3.14-.18-.28-.34-.57-.52-.86-1.91-3.09-4.33-5.77-6.77-8.44-1.23-1.35-1.24-1.77.16-2.96.47-.39.94-.79,1.43-1.14,2.74-1.98,5.5-3.93,8.24-5.92.76-.55,1.58-.51,2.4-.31.8.2,1.59.49,2.36.81,2.67,1.11,5.32,2.27,7.99,3.37,1.04.43,1.6,1.08,1.61,2.26.01.99.19,1.98.28,2.98.06.7.46,1.14,1.09,1.33,1.03.3,1.69,1.08,2.28,1.86,1.45,1.91,3.31,3.29,5.37,4.42,3,1.65,6.25,2.8,9.19,4.6,1.69,1.04,3.28,2.05,4.26,3.81.81,1.45,1.58,2.92,2.37,4.38.18.34.33.72.58,1,2.01,2.32,4.57,3.87,7.33,5.07,1.93.84,3.99,1.38,6,2.03,1.48.48,2.47,1.41,3.03,2.88.23.61.55,1.27,1.02,1.68.55.49,1.29.86,2,1.07.77.22.92-.65,1.33-1.05,1.23-1.2,2.45-2.41,3.67-3.61.08-.08.18-.13.27-.19,1.61-1.23,3.41-2.05,5.31-2.74,1.29-.47,2.5-1.17,3.71-1.82.73-.39,1.35-1.03,2.1-1.32,1.5-.57,3.06-.97,4.59-1.45,3.8-1.17,7.65-1.9,11.65-1.74,1.02.04,2.07-.25,3.08-.5,2.44-.6,4.9-1.22,7.41-.78,1.7.3,3.29.12,4.94-.19,1.96-.36,4.03-.69,5.9.27,2.34,1.2,4.45.83,6.66-.34,1.56-.83,3.2-1.61,4.9-2.04,1.54-.39,3.2-.41,4.81-.39,5.06.05,10.12.2,15.18.29,1.67.03,3.35-.07,5.01.02,1.04.06,2.12.22,3.09.57,2.44.89,4.95,1.34,7.51,1.36,3.02.02,5.95.24,8.92.93,3.36.78,6.48,1.84,9.29,3.91,1.46,1.07,3.15,1.89,4.83,2.58,3.6,1.48,7.47,1.73,11.28,1.95,3.1.18,6.15.44,9.21,1.02,2.11.39,4.31.34,6.48.34,1.68,0,3.16.62,4.67,1.15.69.24.75.82.14,1.27-1.12.82-2.29,1.55-3.76,1.67-2.43.19-4.92.22-7.28.76-3.52.8-7.09.49-10.62.78-2.68.22-5.27.79-7.87,1.32-2.7.56-5.31,1.58-7.97,2.34-1.33.38-2.71.58-4.04.94-1.77.48-3.53,1-5.27,1.58-.67.22-1.3.62-1.89,1.02-.13.09-.13.65.02.81.19.22.58.38.89.38,2.55,0,5.12.4,7.62-.49,2.46-.88,4.92-1.72,7.38-2.59.94-.33,1.93-.59,2.81-1.06,2.43-1.28,5.14-1.36,7.74-1.75,3.39-.52,6.86-.53,10.29-.77,1.77-.12,3.55-.24,5.32-.39,2.27-.19,4.54-.61,6.8-.57,3.01.06,5.85-.55,8.67-1.43,1.34-.42,2.52-1.06,3.3-2.36.94-1.57.23-3.85-1.47-4.54-2.32-.94-4.76-.91-7.18-.99-1.04-.03-2.08.32-3.12.48-1.72.26-3.42.08-5.1-.34-1.39-.35-2.75-.89-4.15-1.1-1.01-.15-2.1,0-3.13.17-1.66.26-3.26.38-4.8-.51-2.48-1.44-5.05-2.46-8.01-2.51-1.62-.03-3.37-.24-4.8-1.17-1.25-.81-2.41-1.77-3.53-2.76-1.98-1.76-3.94-3.47-6.82-3.42-.32,0-.65-.16-.96-.27-2.27-.79-4.58-.76-6.92-.43-1.25.17-2.53.24-3.79.29-1.27.05-2.54.04-3.81.04-1.77-.01-3.55,0-5.31-.09-1.1-.06-2.19-.39-3.28-.41-1.27-.03-2.54.22-3.82.22-1.33,0-2.66-.12-3.98-.24-3.31-.31-6.68-.36-9.9-1.07-3.34-.74-6.64-.48-9.96-.59-.38-.01-.78.07-1.14.2-1.36.48-2.71,1-4.07,1.51-1.39.52-2.75.73-4.21.15-1.69-.68-3.45-1.21-5.19-1.77-.52-.17-1.09-.37-1.61-.32-1.82.19-3.55.65-5.21,1.57-2.73,1.52-5.69,2.49-8.79,3.01-2.41.41-4.82.79-7.23,1.21-2.02.35-4.04.69-6.05,1.1-2.5.51-5,1.08-7.48,1.66-.53.12-1.08.35-1.53.66-2.64,1.82-5.5,3.13-8.59,3.98-3.25.9-6.11-.18-8.84-1.81-.27-.16-.45-.48-.66-.75-1.94-2.57-4.5-4.26-7.52-5.28-1.95-.66-3.58-1.73-4.91-3.31-2.07-2.44-4.6-4.35-7.23-6.13-2.9-1.95-5.79-3.92-8.66-5.92-.4-.28-.65-.75-.98-1.12-.41-.46-.43-.81.14-1.22,1.31-.94,2.52-2.02,3.87-2.9,1.95-1.29,3.95-2.5,5.98-3.65,1-.56,2.11-.96,3.2-1.34,1.46-.5,2.97-.79,4.39-1.5,1.14-.57,2.63-.85,3.88-.67,1.47.21,2.69-.08,3.78-.83,1.13-.78,2.28-1.11,3.61-.97.77.08,1.55.14,2.32.24,1.12.15,2.19.1,3.25-.44,1.28-.65,2.59-1.27,3.95-1.72.87-.29,1.86-.4,2.78-.32,1.66.14,3.3.45,4.93.77,1,.19,1.87-.08,2.75-.46.56-.25.86-.63.72-1.32-.07-.33-.04-.83.16-1.04,1-1.07,2.67-1.3,3.98-.47,2.15,1.36,4.52,2.43,6.19,4.46,1.08,1.31,2.39,1.5,3.89.91.31-.12.61-.26.91-.41,2.19-1.04,4.39-2.09,6.58-3.13.25-.12.51-.25.77-.31.43-.08.71.16.48.55-.31.51-.72.97-1.15,1.39-.47.47-1.04.84-1.53,1.29-1.75,1.62-1.5,4.55.51,5.88.74.49,1.57.87,2.24,1.44.47.4.9.98,1.09,1.56.26.84.23,1.76.42,2.63.45,2.11.87,4.24,1.45,6.31.38,1.36.99,1.47,2,.47.31-.3.48-.87.49-1.32.06-1.72.02-3.45.03-5.18,0-.52.06-1.03.09-1.55.12,0,.23-.02.35-.02.12.28.26.54.35.83.65,2.07,1.27,4.15,1.95,6.2.32.95,1.36,1.73,1.93,1.58.66-.17,1.36-1.44,1.28-2.35-.02-.22-.09-.44-.14-.65-.23-.97-.49-1.94-.68-2.92-.04-.2.19-.45.3-.67.15.15.37.27.43.44.21.63.35,1.29.55,1.92.44,1.42.91,2.83,1.33,4.26.21.71.61.98,1.34.77,1.95-.57,2.69-1.57,2.69-3.62,0-.5-.06-1.01,0-1.5.07-.6.17-1.22.37-1.78.09-.26.45-.56.7-.57.21,0,.56.34.64.59.38,1.27.65,2.57,1.03,3.84.15.49.48,1.26.79,1.29,1.07.11,2.28.22,3.22-.17,1.23-.51,1.36-.76.97-1.9-.59-1.72-.24-3.44.13-5.41,1.38,2.06,2.04,4.18,2.86,6.21.31.77.64,1.51,1.49,2.11.3-.68.63-1.2.75-1.77.29-1.41.5-2.84.72-4.26.14-.91.33-1.15,1.19-.84,1.63.6,3.16.24,4.73-.17,2.52-.66,3.28-.35,4.4,1.92.45.92,1.14,1.5,2.01,1.89.79.35,1.68.16,2.14-.43.31-.4.58-.84.87-1.26.42.35.84.69,1.26,1.04.17.14.35.28.53.41,1.53,1.03,1.75.95,2.36-.87.05-.16.11-.32.18-.47.6-1.31,1.81-1.56,2.82-.54.46.47.77,1.09,1.23,1.58.48.52,1,1.04,1.6,1.41.67.42.93.24,1.14-.52.24-.85.5-1.7.76-2.55.34-1.1,1.32-1.3,2.24-1.46.79-.14,1.35.32,1.76,1.01.4.66.88,1.28,1.31,1.92.21.32.53.64.55.98.09,1.13.78,1.8,1.59,2.43,1.39,1.07.91.97,2.25.18.32-.19.67-.4,1.03-.46.37-.06,2.44,1.44,2.7,1.83.6.89,1.33,1.44,2.51,1.1.9-.26,1.72-.08,2.41.7,1.41,1.58,3.19,1.91,5.17,1.32.8-.24,1.55-.69,2.36-.82.9-.15,1.87-.17,2.76-.01,1.46.26,2.88.82,4.34,1.07,2.2.38,2.86.76,3.23,2.93.25,1.43,1.11,2.36,1.92,3.4.75.95,1.71,1.11,2.83.96.99-.13,1.99-.17,2.98-.26.83-.07,1.45.23,2.09.79,1.67,1.45,3.5,2.28,5.79,1.28,1.27-.55,2.39-1.12,2.9-2.51.23-.63.5-1.27,1.06-1.72.38,1.11.74,2.09,1.07,3.09.4,1.19,1.82,1.59,2.57,1.34.89-.3,1.56-1.46,1.47-2.57-.03-.44-.16-.89-.11-1.32.21-1.7.06-1.67,1.74-1.7,1.11-.02,2.22-.05,3.33-.15.53-.05,1.17-.49,1.54-.31.31.15.25.98.45,1.46.25.61.51,1.28.97,1.71.27.25.93.11,1.41.1,1.52-.03,2.82.83,3.44,2.3.15.36.28.73.47,1.07.53.91,1.32,1.03,2.01.22.5-.58.83-1.3,1.22-1.97.33-.57.58-1.2.97-1.74.64-.89,1.73-1.38,2.63-1.04.66.24,1.02,1.32,1.47,2.05.1.17.03.44.05.66.15,1.16.87,1.9,1.86,2.41.76.39,1.12.26,1.42-.53.19-.51.28-1.07.36-1.62.28-1.87,1.08-2.53,3-2.64,1.8-.11,3.33.8,5.01,1.15.22.05.49.62.46.93-.11,1.41-.48,2.66-1.76,3.59-1.67,1.21-2.79,2.8-2.71,5.06.05,1.32-.33,1.54-1.56,2.01-2.02.77-3.69,1.96-4.6,4.05-.3.69-.81,1.29-1.26,1.91-.9,1.26-1.93,2.45-2.7,3.78-.73,1.26-.17,2.14,1.31,2.25.83.06,1.69.07,2.5-.07,2.05-.37,4.09-.33,6.14-.05,1.83.25,3.64.26,5.4-.56,1.1-.52,2.28-.74,3.57-.39,1.06.29,2.2.33,3.3.4.99.06,1.77.34,2.48,1.13.87.95,2.04,1.79,3.38,1.49,1.26-.28,2.08.2,3.05.79,2.52,1.53,5.16,2.31,8.09,1.06,1.02-.44,2.09-.82,3.17-1.01,3.12-.55,6.23-1.07,9.42-1.15,1.96-.05,3.99-.33,5.3-2.24.42-.62,1.13-1.08,1.78-1.48,1-.63,1.5-1.45,1.39-2.63Zm-319.77-28.54c-.03.5-.09,1-.09,1.49-.02,1.77.16,3.59-1.48,5.15-.3-.36-.65-.77-.99-1.18-.21-.25-.38-.6-.65-.74-.36-.19-.94-.08-1.19-.34-.27-.27-.19-.85-.39-1.23-.59-1.11-1.74-1.17-2.54-.16-.24.3-.36.7-.59,1.01-.53.71-1.14.65-1.54-.12-.1-.2-.16-.42-.22-.63-.36-1.35-.88-2.52-2.52-2.69-.53-.05-.97-.39-.95-.98.05-2.05.1-4.1.25-6.14.04-.49.41-1.03.77-1.39,1.18-1.17,2.42-2.28,3.64-3.41.37-.34.73-.68,1.09-1.02,1.07-1.02,2.2-1.42,3.57-.52.35.23.84.26,1.27.38,1.87.54,3.07,1.96,3.01,3.89-.08,2.88-.31,5.75-.47,8.63Zm4.91-18.08c-1.03,1.17-2.07,2.32-3.08,3.5-.59.69-1.18.84-2.04.39-1.46-.77-3.12-1.19-3.95-2.86-.13-.26-.64-.42-.99-.45-1.56-.15-2.85.53-3.89,1.59-2.05,2.11-4.05,4.28-6,6.48-.92,1.04-1.63,2.25-1.64,3.72,0,.5-.3.57-.65.45-.42-.14-.82-.35-1.21-.56-.39-.2-.76-.46-1.16-.64-2.12-.96-4.28-1.85-6.38-2.86-2-.95-3.9-1.14-5.8.25-.91.67-1.85.77-2.97.24-1.6-.76-3.28-1.36-5.14-.75-.39.13-1.01-.08-1.39-.33-2.26-1.52-3.75-1.17-5.36.45-1.17,1.18-2.35,1.6-3.88,1.15-.67-.2-1.52.62-1.99-.25-.3-.56-.31-1.27-.44-1.92-.24-1.14-.42-2.29-.72-3.41-.39-1.47-1.36-2.57-2.65-3.3-1.41-.8-2.93-1.41-4.6-1.29-1.11.08-1.93-.27-2.62-1.13-.38-.48-.83-.9-1.28-1.31-1.49-1.34-3.32-1.24-4.5.38-.67.92-1.33,1.46-2.49,1.1-.1-.03-.23-.05-.33-.01-1.68.62-2.61-.04-3.05-1.71-.14-.52-.51-.99-.84-1.43-.84-1.14-1.73-2.13-3.4-1.96-1.43.14-2.64-.5-3.37-1.75-.57-.97-1.41-1.44-2.44-1.5-1-.05-1.43-.56-1.84-1.39-.8-1.64-3.02-2.92-5.13-2.91-.51.17-1.41.34-2.16.76-.92.51-1.77.58-2.7.18-.36-.15-.73-.27-1.08-.45-1.55-.81-3.16-.78-4.68-.11-1,.44-1.7.17-2.47-.34-.46-.3-.94-.58-1.39-.89-.75-.52-.71-1.13.14-1.46,1.03-.4,2.11-.7,3.16-1.07,1.3-.45,2.59-.97,3.91-1.37.61-.19,1.31-.36,1.92-.24,1.58.31,3.14.72,4.68,1.2,1,.31,1.92.41,2.93.05,1.98-.7,3.97-1.36,5.98-1.98,1.17-.36,2.31-.56,3.58-.11,2.62.93,5.33,1.58,7.95,2.51,2.45.87,4.94,1.29,7.51,1.17,1.14-.05,2.3-.35,3.4-.69,1.43-.44,2.81-1.05,4.22-1.56,2.08-.74,4.21-.95,6.4-.54.81.15,1.69.22,2.49.07,3.37-.64,6.64-.07,9.92.56,2.34.45,4.61,1.11,6.86,1.91,1.77.63,3.65.94,5.48,1.43,1.12.3,2.23.66,3.34.99.69.2,1.38.51,2.09.57,2.71.24,4.88,1.7,7.18,2.94,2.05,1.09,4.25,1.9,6.39,2.82.71.3,1.45.56,2.19.8.4.13.83.15,1.24.26.34.1.68.23.99.41,1.53.89,3.03,1.83,4.57,2.69.96.54,2.01.93,2.96,1.5,1,.6,1.02,1.09.23,1.99Z"/>
      <path class="cls-1" d="m66.79,73.92c1.17.23,2.22-.53,3.16-1.27.43-.35.88-.69,1.35-.99.75-.47,1.51-.65,2.35-.13.47.29.98.54,1.51.71,1.49.47,2.62-.32,3.57-1.27.67-.66.43-1.6.07-2.35-.52-1.07-1.32-2.11-2.47-2.34-1.36-.26-1.93-1.09-2.18-2.19-.32-1.41-1.25-2.14-2.41-2.77-1.07-.58-2.14-1.2-3.14-1.89-2.11-1.46-3.43-1.35-5.22.52-.74.77-1.27.93-2.23.49-1.05-.49-2.03-1.13-3.09-1.61-.99-.45-2.02-.9-3.07-1.11-.74-.15-1.1-.46-1.22-1.12-.41-2.33-1.64-3.91-3.94-4.66-1.42-.46-2.76-1.18-4.19-1.59-2.66-.77-5.3-.19-7.89.47-1.61.41-2.91.3-3.94-1.21-.82-1.21-2.16-1.59-3.51-1.41-.88.11-1.25-.13-1.45-.89-.36-1.37-1.16-2.35-2.4-3.05-2.11-1.19-4.27-2.17-6.77-1.94-1.17.11-2.2-.17-3.1-.95-1.07-.94-2.34-1.25-3.75-1.12-2.21.24-4.44.37-6.62.77-1.68.3-3.37.78-4.92,1.48-1.77.81-1.64,2.2-.02,3.34,1.38.97,2.54,1.96,2.62,4.09.12,3.17,1.88,4.21,4.83,3.61.97-.2,1.89-.62,2.82-.97,1.14-.44,2.3-.34,3.15.41.8.71,1.49.74,2.42.49,1.46-.39,2.6.13,3.42,1.41.79,1.23,1.16,2.47.6,3.93-.48,1.25-.27,1.55,1.02,1.89.64.17,1.31.27,1.97.34,1.17.13,2.24.39,3.22,1.19,1.11.91,2.43,1.56,3.58,2.43,2.09,1.58,4.42,1.62,6.85,1.28.71-.1,1.51-.37,2.13-.17.91.3,1.7.95,2.54,1.45-.21.66-.42,1.33-.64,1.99-.03.1-.13.18-.18.28-.34.66-.23.85.55.91.39.03.78-.04,1.17,0,.49.06,1,.12,1.45.3.26.1.49.41.6.68.03.08-.32.41-.55.51-.46.2-.94.33-1.43.47-2.27.63-2.9,1.41-3,3.77-.04.88.23,1.15,1.13,1.28,2.09.3,4.08.09,5.91-1.08.62-.4,1.29-.39,2.04-.42.91-.03,1.91-.51,2.67-1.08,1.05-.79,1.9-1.84,2.84-2.77.56-.55,1.17-1.03,1.68-1.62,1.03-1.19,1.36-1.23,2.85-.8,1.38.4,2.32,1.34,3.15,2.36,1.08,1.32,2.63,1.63,4.1,1.92Z"/>
      <path class="cls-1" d="m98.06,63.94c.88-.14,1.59.05,2.17.53,1.11.91,2.2,1.88,3.14,2.95.91,1.03,1.67,2.2,2.42,3.36,1,1.53,2.33,2.05,4.13,1.76,1.08-.17,2.22-.12,3.32-.03,1.27.1,2.52.49,3.78.48,1.66-.01,2.7.56,3.37,2.13.61,1.43,2.35,1.84,3.62.86.76-.59,1.49-.71,2.32-.46,1.06.31,2.12.28,3.11-.15.62-.27,1.07-.97,1.7-1.21,1.58-.59,2.07-1.98,2.57-3.31.62-1.66-.41-3.42-2.05-3.43-1.54,0-2.34-.76-2.96-1.99-.67-1.31-2.01-1.87-3.16-2.58-.42-.26-1.34-.06-1.84.25-1.08.66-2.08,1.48-3.04,2.32-.58.51-1.08.67-1.79.32-.9-.44-1.81-.85-2.75-1.21-.77-.3-1.55-.67-2.39-.13-.7.45-1.44.85-2.13,1.31-1.38.94-1.38.95-2.5-.23-.23-.24-.45-.49-.64-.77-.99-1.46-1.97-2.93-2.95-4.41-.76-1.15-1.71-1.85-3.19-1.69-.44.05-1.08-.09-1.35-.4-.7-.77-1.39-1.62-1.81-2.56-.47-1.04-1.12-1.46-2.14-1.33-1.85-.1-2.96.81-3.7,2.37-.67,1.42-.67,1.37.26,2.54.39.49.69,1.15.78,1.77.27,1.86,1.81,3.22,3.7,2.91Z"/>
      <path class="cls-1" d="m177.85,55.96c-.08-.26-.61-.54-.91-.51-.23.02-.6.49-.61.77-.05,1.6-.01,3.19.02,4.79.01.64.43,1,1,1.18.45.13.81-.02.83-.52.04-.98.01-1.97.01-2.95.09,0,.18-.02.27-.03-.19-.91-.32-1.84-.61-2.72Z"/>
    </g>
  </g>
</svg>